<svg width="45" height="49" viewBox="0 0 45 49" fill="none" xmlns="http://www.w3.org/2000/svg">
<mask id="path-1-inside-1" fill="white">
<path fill-rule="evenodd" clip-rule="evenodd" d="M22.2002 0C10.0499 0 0.200195 9.84972 0.200195 22V22.9923C0.200195 34.2229 8.61536 43.4881 19.4842 44.8263L22.4927 48.7016C22.6929 48.9594 23.0825 48.9594 23.2826 48.7016L26.4863 44.575C36.5849 42.5808 44.2002 33.6759 44.2002 22.9923V22C44.2002 9.84974 34.3505 0 22.2002 0Z"/>
</mask>
<path fill-rule="evenodd" clip-rule="evenodd" d="M22.2002 0C10.0499 0 0.200195 9.84972 0.200195 22V22.9923C0.200195 34.2229 8.61536 43.4881 19.4842 44.8263L22.4927 48.7016C22.6929 48.9594 23.0825 48.9594 23.2826 48.7016L26.4863 44.575C36.5849 42.5808 44.2002 33.6759 44.2002 22.9923V22C44.2002 9.84974 34.3505 0 22.2002 0Z" fill="white"/>
<path d="M19.4842 44.8263L20.669 43.9064L20.2865 43.4137L19.6674 43.3375L19.4842 44.8263ZM22.4927 48.7016L21.3079 49.6214L21.3079 49.6214L22.4927 48.7016ZM23.2826 48.7016L24.4675 49.6214L24.4675 49.6214L23.2826 48.7016ZM26.4863 44.575L26.1957 43.1034L25.6454 43.2121L25.3015 43.6551L26.4863 44.575ZM1.7002 22C1.7002 10.6782 10.8784 1.5 22.2002 1.5V-1.5C9.22151 -1.5 -1.2998 9.02129 -1.2998 22H1.7002ZM1.7002 22.9923V22H-1.2998V22.9923H1.7002ZM19.6674 43.3375C9.54126 42.0908 1.7002 33.4561 1.7002 22.9923H-1.2998C-1.2998 34.9897 7.68947 44.8854 19.3009 46.315L19.6674 43.3375ZM23.6776 47.7817L20.669 43.9064L18.2993 45.7461L21.3079 49.6214L23.6776 47.7817ZM22.0978 47.7817C22.4982 47.266 23.2772 47.266 23.6776 47.7817L21.3079 49.6214C22.1086 50.6528 23.6668 50.6528 24.4675 49.6214L22.0978 47.7817ZM25.3015 43.6551L22.0978 47.7817L24.4675 49.6214L27.6712 45.4948L25.3015 43.6551ZM42.7002 22.9923C42.7002 32.9457 35.605 41.2453 26.1957 43.1034L26.7769 46.0466C37.5647 43.9163 45.7002 34.406 45.7002 22.9923H42.7002ZM42.7002 22V22.9923H45.7002V22H42.7002ZM22.2002 1.5C33.522 1.5 42.7002 10.6782 42.7002 22H45.7002C45.7002 9.02131 35.1789 -1.5 22.2002 -1.5V1.5Z" fill="#B2B2B2" fill-opacity="0.85" mask="url(#path-1-inside-1)"/>
</svg>
